<svg width="20" height="21" viewBox="0 0 20 21" fill="none" xmlns="http://www.w3.org/2000/svg">
<path d="M12.6452 13.0371L10.7195 15.676C10.618 15.8151 10.485 15.9282 10.3315 16.0063C10.178 16.0843 10.0082 16.125 9.836 16.125C9.66379 16.125 9.49402 16.0843 9.34049 16.0063C9.18697 15.9282 9.05405 15.8151 8.95254 15.676L7.02679 13.0371C4.65304 13.3801 3 14.1436 3 15.0312C3 16.2394 6.06055 17.2187 9.83594 17.2187C13.6113 17.2187 16.6719 16.2394 16.6719 15.0312C16.6719 14.1437 15.0189 13.3801 12.6452 13.0371Z" fill="#666666"/>
<path d="M9.83593 15.0312L13.4402 10.092C13.9257 9.4267 14.2176 8.63994 14.2835 7.81892C14.3494 6.9979 14.1868 6.17465 13.8136 5.44038C13.4405 4.7061 12.8713 4.08945 12.1692 3.65872C11.4672 3.22799 10.6596 3 9.83593 3C9.01227 3 8.20468 3.22799 7.50261 3.65872C6.80055 4.08945 6.23141 4.7061 5.85824 5.44038C5.48507 6.17465 5.32243 6.9979 5.38833 7.81892C5.45424 8.63994 5.74611 9.4267 6.23163 10.092L9.83593 15.0312ZM9.83593 5.48149C10.2276 5.48149 10.6105 5.59765 10.9362 5.81526C11.2619 6.03288 11.5157 6.34219 11.6656 6.70407C11.8155 7.06595 11.8548 7.46416 11.7783 7.84833C11.7019 8.23251 11.5133 8.58539 11.2363 8.86237C10.9594 9.13934 10.6065 9.32796 10.2223 9.40438C9.83813 9.48079 9.43992 9.44157 9.07804 9.29168C8.71616 9.14178 8.40685 8.88794 8.18923 8.56225C7.97162 8.23657 7.85546 7.85366 7.85546 7.46196C7.85546 6.93671 8.06412 6.43297 8.43553 6.06156C8.80694 5.69015 9.31068 5.48149 9.83593 5.48149Z" fill="#666666"/>
</svg>
