<svg width="1002" height="28" viewBox="0 0 1002 28" fill="none" xmlns="http://www.w3.org/2000/svg">
<line y1="13" x2="420" y2="13" stroke="#F2DFD6" stroke-width="2" stroke-dasharray="4 4"/>
<rect x="428" width="146" height="28" rx="4" fill="#D8541A" fill-opacity="0.15"/>
<g clip-path="url(#clip0_14_2257)">
<path d="M449 14.8317H444.833V18.9983C444.833 19.2193 444.746 19.4313 444.589 19.5876C444.433 19.7439 444.221 19.8317 444 19.8317C443.779 19.8317 443.567 19.7439 443.411 19.5876C443.254 19.4313 443.167 19.2193 443.167 18.9983V14.8317H439C438.779 14.8317 438.567 14.7439 438.411 14.5876C438.254 14.4313 438.167 14.2193 438.167 13.9983C438.167 13.7773 438.254 13.5654 438.411 13.4091C438.567 13.2528 438.779 13.165 439 13.165H443.167V8.99833C443.167 8.77731 443.254 8.56535 443.411 8.40907C443.567 8.25279 443.779 8.16499 444 8.16499C444.221 8.16499 444.433 8.25279 444.589 8.40907C444.746 8.56535 444.833 8.77731 444.833 8.99833V13.165H449C449.221 13.165 449.433 13.2528 449.589 13.4091C449.746 13.5654 449.833 13.7773 449.833 13.9983C449.833 14.2193 449.746 14.4313 449.589 14.5876C449.433 14.7439 449.221 14.8317 449 14.8317Z" fill="#D8541A"/>
</g>
<path d="M456.36 18L459.456 9.6H460.524L463.608 18H462.54L461.772 15.84H458.196L457.416 18H456.36ZM458.496 15.024H461.472L459.984 10.872L458.496 15.024ZM467.169 18.144C466.577 18.144 466.057 18.008 465.609 17.736C465.169 17.464 464.825 17.092 464.577 16.62C464.337 16.148 464.217 15.612 464.217 15.012C464.217 14.412 464.341 13.88 464.589 13.416C464.837 12.944 465.181 12.576 465.621 12.312C466.061 12.04 466.581 11.904 467.181 11.904C467.669 11.904 468.101 12.004 468.477 12.204C468.853 12.404 469.145 12.684 469.353 13.044V9.36H470.361V18H469.449L469.353 17.016C469.161 17.304 468.885 17.564 468.525 17.796C468.165 18.028 467.713 18.144 467.169 18.144ZM467.277 17.268C467.677 17.268 468.029 17.176 468.333 16.992C468.645 16.8 468.885 16.536 469.053 16.2C469.229 15.864 469.317 15.472 469.317 15.024C469.317 14.576 469.229 14.184 469.053 13.848C468.885 13.512 468.645 13.252 468.333 13.068C468.029 12.876 467.677 12.78 467.277 12.78C466.885 12.78 466.533 12.876 466.221 13.068C465.917 13.252 465.677 13.512 465.501 13.848C465.333 14.184 465.249 14.576 465.249 15.024C465.249 15.472 465.333 15.864 465.501 16.2C465.677 16.536 465.917 16.8 466.221 16.992C466.533 17.176 466.885 17.268 467.277 17.268ZM474.704 18.144C474.112 18.144 473.592 18.008 473.144 17.736C472.704 17.464 472.36 17.092 472.112 16.62C471.872 16.148 471.752 15.612 471.752 15.012C471.752 14.412 471.876 13.88 472.124 13.416C472.372 12.944 472.716 12.576 473.156 12.312C473.596 12.04 474.116 11.904 474.716 11.904C475.204 11.904 475.636 12.004 476.012 12.204C476.388 12.404 476.68 12.684 476.888 13.044V9.36H477.896V18H476.984L476.888 17.016C476.696 17.304 476.42 17.564 476.06 17.796C475.7 18.028 475.248 18.144 474.704 18.144ZM474.812 17.268C475.212 17.268 475.564 17.176 475.868 16.992C476.18 16.8 476.42 16.536 476.588 16.2C476.764 15.864 476.852 15.472 476.852 15.024C476.852 14.576 476.764 14.184 476.588 13.848C476.42 13.512 476.18 13.252 475.868 13.068C475.564 12.876 475.212 12.78 474.812 12.78C474.42 12.78 474.068 12.876 473.756 13.068C473.452 13.252 473.212 13.512 473.036 13.848C472.868 14.184 472.784 14.576 472.784 15.024C472.784 15.472 472.868 15.864 473.036 16.2C473.212 16.536 473.452 16.8 473.756 16.992C474.068 17.176 474.42 17.268 474.812 17.268ZM483.363 20.64L484.839 17.424H484.491L482.127 12.048H483.219L485.187 16.68L487.275 12.048H488.319L484.419 20.64H483.363ZM491.532 18.144C490.972 18.144 490.468 18.016 490.02 17.76C489.572 17.504 489.216 17.144 488.952 16.68C488.696 16.208 488.568 15.656 488.568 15.024C488.568 14.392 488.7 13.844 488.964 13.38C489.228 12.908 489.584 12.544 490.032 12.288C490.488 12.032 490.996 11.904 491.556 11.904C492.116 11.904 492.62 12.032 493.068 12.288C493.516 12.544 493.868 12.908 494.124 13.38C494.388 13.844 494.52 14.392 494.52 15.024C494.52 15.656 494.388 16.208 494.124 16.68C493.86 17.144 493.5 17.504 493.044 17.76C492.596 18.016 492.092 18.144 491.532 18.144ZM491.532 17.28C491.876 17.28 492.196 17.196 492.492 17.028C492.788 16.86 493.028 16.608 493.212 16.272C493.396 15.936 493.488 15.52 493.488 15.024C493.488 14.528 493.396 14.112 493.212 13.776C493.036 13.44 492.8 13.188 492.504 13.02C492.208 12.852 491.892 12.768 491.556 12.768C491.212 12.768 490.892 12.852 490.596 13.02C490.3 13.188 490.06 13.44 489.876 13.776C489.692 14.112 489.6 14.528 489.6 15.024C489.6 15.52 489.692 15.936 489.876 16.272C490.06 16.608 490.296 16.86 490.584 17.028C490.88 17.196 491.196 17.28 491.532 17.28ZM498.094 18.144C497.39 18.144 496.83 17.932 496.414 17.508C495.998 17.076 495.79 16.416 495.79 15.528V12.048H496.798V15.42C496.798 16.66 497.306 17.28 498.322 17.28C498.842 17.28 499.27 17.096 499.606 16.728C499.95 16.352 500.122 15.82 500.122 15.132V12.048H501.13V18H500.218L500.146 16.932C499.962 17.308 499.686 17.604 499.318 17.82C498.958 18.036 498.55 18.144 498.094 18.144ZM502.789 18V12.048H503.701L503.785 13.188C503.969 12.796 504.249 12.484 504.625 12.252C505.001 12.02 505.465 11.904 506.017 11.904V12.96H505.741C505.389 12.96 505.065 13.024 504.769 13.152C504.473 13.272 504.237 13.48 504.061 13.776C503.885 14.072 503.797 14.48 503.797 15V18H502.789ZM510.384 18V9.6H511.392V17.196H515.304V18H510.384ZM519.083 18.144C518.523 18.144 518.019 18.016 517.571 17.76C517.123 17.504 516.767 17.144 516.503 16.68C516.247 16.208 516.119 15.656 516.119 15.024C516.119 14.392 516.251 13.844 516.515 13.38C516.779 12.908 517.135 12.544 517.583 12.288C518.039 12.032 518.547 11.904 519.107 11.904C519.667 11.904 520.171 12.032 520.619 12.288C521.067 12.544 521.419 12.908 521.675 13.38C521.939 13.844 522.071 14.392 522.071 15.024C522.071 15.656 521.939 16.208 521.675 16.68C521.411 17.144 521.051 17.504 520.595 17.76C520.147 18.016 519.643 18.144 519.083 18.144ZM519.083 17.28C519.427 17.28 519.747 17.196 520.043 17.028C520.339 16.86 520.579 16.608 520.763 16.272C520.947 15.936 521.039 15.52 521.039 15.024C521.039 14.528 520.947 14.112 520.763 13.776C520.587 13.44 520.351 13.188 520.055 13.02C519.759 12.852 519.443 12.768 519.107 12.768C518.763 12.768 518.443 12.852 518.147 13.02C517.851 13.188 517.611 13.44 517.427 13.776C517.243 14.112 517.151 14.528 517.151 15.024C517.151 15.52 517.243 15.936 517.427 16.272C517.611 16.608 517.847 16.86 518.135 17.028C518.431 17.196 518.747 17.28 519.083 17.28ZM525.567 16.128C525.231 16.128 524.923 16.084 524.643 15.996L524.043 16.56C524.131 16.624 524.239 16.68 524.367 16.728C524.503 16.768 524.695 16.808 524.943 16.848C525.191 16.88 525.539 16.916 525.987 16.956C526.787 17.012 527.359 17.196 527.703 17.508C528.047 17.82 528.219 18.228 528.219 18.732C528.219 19.076 528.123 19.404 527.931 19.716C527.747 20.028 527.459 20.284 527.067 20.484C526.683 20.684 526.187 20.784 525.579 20.784C525.043 20.784 524.567 20.712 524.151 20.568C523.735 20.432 523.411 20.22 523.179 19.932C522.947 19.652 522.831 19.296 522.831 18.864C522.831 18.64 522.891 18.396 523.011 18.132C523.131 17.876 523.355 17.632 523.683 17.4C523.507 17.328 523.355 17.252 523.227 17.172C523.107 17.084 522.995 16.988 522.891 16.884V16.608L523.911 15.6C523.439 15.2 523.203 14.672 523.203 14.016C523.203 13.624 523.295 13.268 523.479 12.948C523.663 12.628 523.931 12.376 524.283 12.192C524.635 12 525.063 11.904 525.567 11.904C525.911 11.904 526.223 11.952 526.503 12.048H528.699V12.804L527.583 12.852C527.815 13.188 527.931 13.576 527.931 14.016C527.931 14.408 527.835 14.764 527.643 15.084C527.459 15.404 527.191 15.66 526.839 15.852C526.495 16.036 526.071 16.128 525.567 16.128ZM525.567 15.3C525.991 15.3 526.327 15.192 526.575 14.976C526.831 14.752 526.959 14.432 526.959 14.016C526.959 13.608 526.831 13.296 526.575 13.08C526.327 12.856 525.991 12.744 525.567 12.744C525.135 12.744 524.791 12.856 524.535 13.08C524.287 13.296 524.163 13.608 524.163 14.016C524.163 14.432 524.287 14.752 524.535 14.976C524.791 15.192 525.135 15.3 525.567 15.3ZM523.815 18.768C523.815 19.168 523.983 19.464 524.319 19.656C524.655 19.856 525.075 19.956 525.579 19.956C526.075 19.956 526.471 19.848 526.767 19.632C527.071 19.416 527.223 19.128 527.223 18.768C527.223 18.512 527.119 18.288 526.911 18.096C526.703 17.912 526.319 17.804 525.759 17.772C525.319 17.74 524.939 17.7 524.619 17.652C524.291 17.828 524.075 18.016 523.971 18.216C523.867 18.424 523.815 18.608 523.815 18.768ZM532.313 18.144C531.753 18.144 531.249 18.016 530.801 17.76C530.353 17.504 529.997 17.144 529.733 16.68C529.477 16.208 529.349 15.656 529.349 15.024C529.349 14.392 529.481 13.844 529.745 13.38C530.009 12.908 530.365 12.544 530.813 12.288C531.269 12.032 531.777 11.904 532.337 11.904C532.897 11.904 533.401 12.032 533.849 12.288C534.297 12.544 534.649 12.908 534.905 13.38C535.169 13.844 535.301 14.392 535.301 15.024C535.301 15.656 535.169 16.208 534.905 16.68C534.641 17.144 534.281 17.504 533.825 17.76C533.377 18.016 532.873 18.144 532.313 18.144ZM532.313 17.28C532.657 17.28 532.977 17.196 533.273 17.028C533.569 16.86 533.809 16.608 533.993 16.272C534.177 15.936 534.269 15.52 534.269 15.024C534.269 14.528 534.177 14.112 533.993 13.776C533.817 13.44 533.581 13.188 533.285 13.02C532.989 12.852 532.673 12.768 532.337 12.768C531.993 12.768 531.673 12.852 531.377 13.02C531.081 13.188 530.841 13.44 530.657 13.776C530.473 14.112 530.381 14.528 530.381 15.024C530.381 15.52 530.473 15.936 530.657 16.272C530.841 16.608 531.077 16.86 531.365 17.028C531.661 17.196 531.977 17.28 532.313 17.28ZM539.879 18V9.36H540.887V13.068C541.087 12.7 541.371 12.416 541.739 12.216C542.107 12.008 542.507 11.904 542.939 11.904C543.627 11.904 544.179 12.12 544.595 12.552C545.011 12.976 545.219 13.632 545.219 14.52V18H544.223V14.628C544.223 13.388 543.723 12.768 542.723 12.768C542.203 12.768 541.767 12.956 541.415 13.332C541.063 13.7 540.887 14.228 540.887 14.916V18H539.879ZM549.422 18.144C548.854 18.144 548.35 18.016 547.91 17.76C547.47 17.496 547.122 17.132 546.866 16.668C546.618 16.204 546.494 15.656 546.494 15.024C546.494 14.4 546.618 13.856 546.866 13.392C547.114 12.92 547.458 12.556 547.898 12.3C548.346 12.036 548.862 11.904 549.446 11.904C550.022 11.904 550.518 12.036 550.934 12.3C551.358 12.556 551.682 12.896 551.906 13.32C552.13 13.744 552.242 14.2 552.242 14.688C552.242 14.776 552.238 14.864 552.23 14.952C552.23 15.04 552.23 15.14 552.23 15.252H547.49C547.514 15.708 547.618 16.088 547.802 16.392C547.994 16.688 548.23 16.912 548.51 17.064C548.798 17.216 549.102 17.292 549.422 17.292C549.838 17.292 550.186 17.196 550.466 17.004C550.746 16.812 550.95 16.552 551.078 16.224H552.074C551.914 16.776 551.606 17.236 551.15 17.604C550.702 17.964 550.126 18.144 549.422 18.144ZM549.422 12.756C548.942 12.756 548.514 12.904 548.138 13.2C547.77 13.488 547.558 13.912 547.502 14.472H551.246C551.222 13.936 551.038 13.516 550.694 13.212C550.35 12.908 549.926 12.756 549.422 12.756ZM553.578 18V12.048H554.49L554.574 13.188C554.758 12.796 555.038 12.484 555.414 12.252C555.79 12.02 556.254 11.904 556.806 11.904V12.96H556.53C556.178 12.96 555.854 13.024 555.558 13.152C555.262 13.272 555.026 13.48 554.85 13.776C554.674 14.072 554.586 14.48 554.586 15V18H553.578ZM560.391 18.144C559.823 18.144 559.319 18.016 558.879 17.76C558.439 17.496 558.091 17.132 557.835 16.668C557.587 16.204 557.463 15.656 557.463 15.024C557.463 14.4 557.587 13.856 557.835 13.392C558.083 12.92 558.427 12.556 558.867 12.3C559.315 12.036 559.831 11.904 560.415 11.904C560.991 11.904 561.487 12.036 561.903 12.3C562.327 12.556 562.651 12.896 562.875 13.32C563.099 13.744 563.211 14.2 563.211 14.688C563.211 14.776 563.207 14.864 563.199 14.952C563.199 15.04 563.199 15.14 563.199 15.252H558.459C558.483 15.708 558.587 16.088 558.771 16.392C558.963 16.688 559.199 16.912 559.479 17.064C559.767 17.216 560.071 17.292 560.391 17.292C560.807 17.292 561.155 17.196 561.435 17.004C561.715 16.812 561.919 16.552 562.047 16.224H563.043C562.883 16.776 562.575 17.236 562.119 17.604C561.671 17.964 561.095 18.144 560.391 18.144ZM560.391 12.756C559.911 12.756 559.483 12.904 559.107 13.2C558.739 13.488 558.527 13.912 558.471 14.472H562.215C562.191 13.936 562.007 13.516 561.663 13.212C561.319 12.908 560.895 12.756 560.391 12.756Z" fill="#D8541A"/>
<line x1="582" y1="13" x2="1002" y2="13" stroke="#F2DFD6" stroke-width="2" stroke-dasharray="4 4"/>
<defs>
<clipPath id="clip0_14_2257">
<rect width="12" height="12" fill="white" transform="translate(438 8)"/>
</clipPath>
</defs>
</svg>
