<svg width="18" height="21" viewBox="0 0 18 21" fill="none" xmlns="http://www.w3.org/2000/svg">
<g clip-path="url(#clip0_204_414)">
<path d="M6.42857 1.42857V2.71429H11.5714V1.42857C11.5714 0.718616 12.146 0.142857 12.8571 0.142857C13.5683 0.142857 14.1429 0.718616 14.1429 1.42857V2.71429H16.0714C17.1362 2.71429 18 3.57772 18 4.64286V6.57143H0V4.64286C0 3.57772 0.863437 2.71429 1.92857 2.71429H3.85714V1.42857C3.85714 0.718616 4.4317 0.142857 5.14286 0.142857C5.85402 0.142857 6.42857 0.718616 6.42857 1.42857ZM0 7.85714H18V18.7857C18 19.8504 17.1362 20.7143 16.0714 20.7143H1.92857C0.863437 20.7143 0 19.8504 0 18.7857V7.85714ZM3.21429 10.4286C2.85911 10.4286 2.57143 10.7179 2.57143 11.0714V14.9286C2.57143 15.2821 2.85911 15.5714 3.21429 15.5714H7.07143C7.425 15.5714 7.71429 15.2821 7.71429 14.9286V11.0714C7.71429 10.7179 7.425 10.4286 7.07143 10.4286H3.21429Z" fill="#666666"/>
</g>
<defs>
<clipPath id="clip0_204_414">
<rect width="17.25" height="19.7143" fill="white" transform="translate(0 0.642857)"/>
</clipPath>
</defs>
</svg>
