<svg width="24" height="24" viewBox="0 0 24 24" fill="none" xmlns="http://www.w3.org/2000/svg">
<rect x="0.5" y="0.5" width="23" height="23" rx="11.5" stroke="#D8541A"/>
<path d="M7.71429 17.4286C7.71429 18.2143 8.35714 18.8571 9.14286 18.8571H14.8571C15.6429 18.8571 16.2857 18.2143 16.2857 17.4286V10.2857C16.2857 9.5 15.6429 8.85714 14.8571 8.85714H9.14286C8.35714 8.85714 7.71429 9.5 7.71429 10.2857V17.4286ZM16.2857 6.71429H14.5L13.9929 6.20714C13.8643 6.07857 13.6786 6 13.4929 6H10.5071C10.3214 6 10.1357 6.07857 10.0071 6.20714L9.5 6.71429H7.71429C7.32143 6.71429 7 7.03571 7 7.42857C7 7.82143 7.32143 8.14286 7.71429 8.14286H16.2857C16.6786 8.14286 17 7.82143 17 7.42857C17 7.03571 16.6786 6.71429 16.2857 6.71429Z" fill="#D8541A"/>
</svg>
