<svg width="28" height="28" viewBox="0 0 28 28" fill="none" xmlns="http://www.w3.org/2000/svg">
<path d="M18.6665 20.5333L20.5332 18.6667C20.6665 18.5333 20.7332 18.3778 20.7332 18.2C20.7332 18.0222 20.6665 17.8667 20.5332 17.7333L15.9998 13.1667C16.0887 12.9222 16.1554 12.6778 16.1998 12.4333C16.2443 12.1889 16.2665 11.9111 16.2665 11.6C16.2665 10.3333 15.8167 9.25021 14.9172 8.35066C14.0176 7.4511 12.9341 7.00088 11.6665 6.99999C11.4221 6.99999 11.1887 7.0111 10.9665 7.03332C10.7443 7.05555 10.5221 7.1111 10.2998 7.19999C10.0998 7.28888 9.97762 7.44444 9.93317 7.66666C9.88873 7.88888 9.94428 8.07777 10.0998 8.23332L12.5665 10.7L10.6998 12.5667L8.23317 10.1C8.07762 9.94444 7.88873 9.88888 7.66651 9.93332C7.44428 9.97777 7.28873 10.1 7.19984 10.3C7.13317 10.5222 7.08295 10.7444 7.04917 10.9667C7.0154 11.1889 6.99895 11.4222 6.99984 11.6667C6.99984 12.9333 7.45006 14.0169 8.35051 14.9173C9.25095 15.8178 10.3341 16.2675 11.5998 16.2667C11.8887 16.2667 12.1612 16.2444 12.4172 16.2C12.6732 16.1555 12.9229 16.0889 13.1665 16L17.7332 20.5333C17.8665 20.6667 18.0221 20.7333 18.1998 20.7333C18.3776 20.7333 18.5332 20.6667 18.6665 20.5333ZM13.9998 27.3333C12.1554 27.3333 10.4221 26.9831 8.79984 26.2827C7.17762 25.5822 5.76651 24.6324 4.56651 23.4333C3.36651 22.2342 2.41673 20.8231 1.71717 19.2C1.01762 17.5769 0.667394 15.8435 0.666506 14C0.665617 12.1564 1.01584 10.4231 1.71717 8.79999C2.41851 7.17688 3.36828 5.76577 4.56651 4.56666C5.76473 3.36755 7.17584 2.41777 8.79984 1.71732C10.4238 1.01688 12.1572 0.666656 13.9998 0.666656C15.8425 0.666656 17.5758 1.01688 19.1998 1.71732C20.8238 2.41777 22.235 3.36755 23.4332 4.56666C24.6314 5.76577 25.5816 7.17688 26.2838 8.79999C26.9861 10.4231 27.3358 12.1564 27.3332 14C27.3305 15.8435 26.9803 17.5769 26.2825 19.2C25.5847 20.8231 24.635 22.2342 23.4332 23.4333C22.2314 24.6324 20.8203 25.5827 19.1998 26.284C17.5794 26.9853 15.8461 27.3351 13.9998 27.3333Z" fill="#666666"/>
</svg>
