<svg width="20" height="21" viewBox="0 0 20 21" fill="none" xmlns="http://www.w3.org/2000/svg">
<path d="M10 1C5.02975 1 1 5.02938 1 10C1 14.9706 5.02975 19 10 19C14.971 19 19 14.9706 19 10C19 5.02938 14.971 1 10 1ZM10 6.14237C11.0534 6.14237 11.9065 6.9955 11.9065 8.0485C11.9065 9.10188 11.0534 9.955 10 9.955C8.94737 9.955 8.09387 9.10188 8.09387 8.0485C8.09387 6.9955 8.94737 6.14237 10 6.14237ZM13.2183 15.1337C12.2841 15.7101 11.1873 16.0484 10.0086 16.0484C8.82325 16.0484 7.71962 15.706 6.78212 15.1232V11.2472C6.78212 10.9082 7.057 10.633 7.39637 10.633H12.6044C12.9434 10.633 13.2186 10.9079 13.2186 11.2472L13.2183 15.1337Z" fill="#666666"/>
</svg>
