<svg width="20" height="21" viewBox="0 0 20 21" fill="none" xmlns="http://www.w3.org/2000/svg">
<path d="M15.22 6.66222V14.9733H16.0511C16.1613 14.9733 16.267 15.0171 16.345 15.095C16.4229 15.173 16.4667 15.2787 16.4667 15.3889V16.22C16.4667 16.3302 16.4229 16.4359 16.345 16.5138C16.267 16.5918 16.1613 16.6356 16.0511 16.6356H11.8956C11.7853 16.6356 11.6796 16.5918 11.6017 16.5138C11.5238 16.4359 11.48 16.3302 11.48 16.22V15.3889C11.48 15.2787 11.5238 15.173 11.6017 15.095C11.6796 15.0171 11.7853 14.9733 11.8956 14.9733H12.7267V11.6489H7.74V14.9733H8.57111C8.68132 14.9733 8.78702 15.0171 8.86495 15.095C8.94289 15.173 8.98667 15.2787 8.98667 15.3889V16.22C8.98667 16.3302 8.94289 16.4359 8.86495 16.5138C8.78702 16.5918 8.68132 16.6356 8.57111 16.6356H4.41556C4.30534 16.6356 4.19965 16.5918 4.12171 16.5138C4.04378 16.4359 4 16.3302 4 16.22V15.3889C4 15.2787 4.04378 15.173 4.12171 15.095C4.19965 15.0171 4.30534 14.9733 4.41556 14.9733H5.24667V6.66222H4.41556C4.30534 6.66222 4.19965 6.61844 4.12171 6.54051C4.04378 6.46258 4 6.35688 4 6.24667V5.41556C4 5.30534 4.04378 5.19965 4.12171 5.12171C4.19965 5.04378 4.30534 5 4.41556 5H8.57111C8.68132 5 8.78702 5.04378 8.86495 5.12171C8.94289 5.19965 8.98667 5.30534 8.98667 5.41556V6.24667C8.98667 6.35688 8.94289 6.46258 8.86495 6.54051C8.78702 6.61844 8.68132 6.66222 8.57111 6.66222H7.74V9.98667H12.7267V6.66222H11.8956C11.7853 6.66222 11.6796 6.61844 11.6017 6.54051C11.5238 6.46258 11.48 6.35688 11.48 6.24667V5.41556C11.48 5.30534 11.5238 5.19965 11.6017 5.12171C11.6796 5.04378 11.7853 5 11.8956 5H16.0511C16.1613 5 16.267 5.04378 16.345 5.12171C16.4229 5.19965 16.4667 5.30534 16.4667 5.41556V6.24667C16.4667 6.35688 16.4229 6.46258 16.345 6.54051C16.267 6.61844 16.1613 6.66222 16.0511 6.66222H15.22Z" fill="#666666"/>
</svg>
