<svg width="20" height="21" viewBox="0 0 20 21" fill="none" xmlns="http://www.w3.org/2000/svg">
<g clip-path="url(#clip0_226_11669)">
<path d="M10.7734 8.74223C10.9264 8.58926 11.0305 8.39438 11.0727 8.18221C11.1149 7.97005 11.0933 7.75014 11.0105 7.55029C10.9277 7.35044 10.7875 7.17962 10.6076 7.05944C10.4278 6.93927 10.2163 6.87512 10 6.87512C9.78368 6.87512 9.57222 6.93927 9.39236 7.05944C9.21249 7.17962 9.0723 7.35044 8.98952 7.55029C8.90673 7.75014 8.88506 7.97005 8.92726 8.18221C8.96945 8.39438 9.07361 8.58926 9.22656 8.74223C9.43459 8.94181 9.71172 9.05325 10 9.05325C10.2883 9.05325 10.5654 8.94181 10.7734 8.74223Z" fill="#666666"/>
<path d="M10 10.3125C9.72255 10.3134 9.45151 10.3963 9.22105 10.5509C8.99059 10.7055 8.81102 10.9248 8.70495 11.1812C8.59887 11.4376 8.57103 11.7197 8.62493 11.9919C8.67883 12.2641 8.81207 12.5143 9.00786 12.7109C9.27523 12.966 9.63054 13.1083 10 13.1083C10.3695 13.1083 10.7249 12.966 10.9922 12.7109C11.188 12.5143 11.3213 12.2641 11.3752 11.9919C11.4291 11.7197 11.4012 11.4376 11.2951 11.1812C11.1891 10.9248 11.0095 10.7055 10.779 10.5509C10.5486 10.3963 10.2775 10.3134 10 10.3125Z" fill="#666666"/>
<path d="M16.25 2.5H3.75C3.41848 2.5 3.10054 2.6317 2.86612 2.86612C2.6317 3.10054 2.5 3.41848 2.5 3.75V16.25C2.5 16.5815 2.6317 16.8995 2.86612 17.1339C3.10054 17.3683 3.41848 17.5 3.75 17.5H16.25C16.5815 17.5 16.8995 17.3683 17.1339 17.1339C17.3683 16.8995 17.5 16.5815 17.5 16.25V3.75C17.5 3.41848 17.3683 3.10054 17.1339 2.86612C16.8995 2.6317 16.5815 2.5 16.25 2.5ZM11.875 13.5938C11.3777 14.091 10.7033 14.3704 10 14.3704C9.29674 14.3704 8.62228 14.091 8.125 13.5938C7.62772 13.0965 7.34835 12.422 7.34835 11.7188C7.34835 11.0155 7.62772 10.341 8.125 9.84375C8.20046 9.76999 8.28142 9.70209 8.36719 9.64062L8.34375 9.625C8.12549 9.40792 7.95229 9.14985 7.8341 8.86561C7.71591 8.58138 7.65506 8.27658 7.65506 7.96875C7.65506 7.66092 7.71591 7.35612 7.8341 7.07189C7.95229 6.78765 8.12549 6.52958 8.34375 6.3125C9.22656 5.42969 10.7734 5.42969 11.6562 6.3125C11.8745 6.52958 12.0477 6.78765 12.1659 7.07189C12.2841 7.35612 12.3449 7.66092 12.3449 7.96875C12.3449 8.27658 12.2841 8.58138 12.1659 8.86561C12.0477 9.14985 11.8745 9.40792 11.6562 9.625L11.6328 9.64062C11.7186 9.70209 11.7995 9.76999 11.875 9.84375C12.1225 10.0892 12.319 10.3813 12.4531 10.7031C12.5872 11.0249 12.6562 11.3701 12.6562 11.7188C12.6562 12.0674 12.5872 12.4126 12.4531 12.7344C12.319 13.0562 12.1225 13.3483 11.875 13.5938Z" fill="#666666"/>
</g>
<defs>
<clipPath id="clip0_226_11669">
<rect width="20" height="20" fill="white" transform="translate(0 0.5)"/>
</clipPath>
</defs>
</svg>
