<svg width="22" height="22" viewBox="0 0 22 22" fill="none" xmlns="http://www.w3.org/2000/svg">
<path d="M2 10.6666C2 10.2869 2.30781 9.97913 2.6875 9.97913H4.0625C4.44219 9.97913 4.75 10.2869 4.75 10.6666C4.75 11.0463 4.44219 11.3541 4.0625 11.3541H2.6875C2.30781 11.3541 2 11.0463 2 10.6666Z" fill="#666666"/>
<path d="M5.6665 10.6666C5.6665 10.2869 5.97431 9.97913 6.354 9.97913H7.729C8.1087 9.97913 8.4165 10.2869 8.4165 10.6666C8.4165 11.0463 8.1087 11.3541 7.729 11.3541H6.354C5.97431 11.3541 5.6665 11.0463 5.6665 10.6666Z" fill="#666666"/>
<path d="M9.3335 10.6666C9.3335 10.2869 9.64131 9.97913 10.021 9.97913H11.396C11.7757 9.97913 12.0835 10.2869 12.0835 10.6666C12.0835 11.0463 11.7757 11.3541 11.396 11.3541H10.021C9.64131 11.3541 9.3335 11.0463 9.3335 10.6666Z" fill="#666666"/>
<path d="M13 10.6666C13 10.2869 13.3078 9.97913 13.6875 9.97913H15.0625C15.4422 9.97913 15.75 10.2869 15.75 10.6666C15.75 11.0463 15.4422 11.3541 15.0625 11.3541H13.6875C13.3078 11.3541 13 11.0463 13 10.6666Z" fill="#666666"/>
<path d="M16.6665 10.6666C16.6665 10.2869 16.9743 9.97913 17.354 9.97913H18.729C19.1087 9.97913 19.4165 10.2869 19.4165 10.6666C19.4165 11.0463 19.1087 11.3541 18.729 11.3541H17.354C16.9743 11.3541 16.6665 11.0463 16.6665 10.6666Z" fill="#666666"/>
<path d="M4.29167 1.5C3.78541 1.5 3.375 1.91041 3.375 2.41667V6.08333C3.375 7.09533 4.19633 7.91667 5.20833 7.91667H16.2083C17.2203 7.91667 18.0417 7.09533 18.0417 6.08333V2.41667C18.0417 1.91041 17.6313 1.5 17.125 1.5H4.29167Z" fill="#666666"/>
<path d="M17.125 19.8333C17.6313 19.8333 18.0417 19.4229 18.0417 18.9166V15.25C18.0417 14.238 17.2203 13.4166 16.2083 13.4166H5.20833C4.19633 13.4166 3.375 14.238 3.375 15.25V18.9166C3.375 19.4229 3.78541 19.8333 4.29167 19.8333H17.125Z" fill="#666666"/>
</svg>
