<svg width="22" height="22" viewBox="0 0 22 22" fill="none" xmlns="http://www.w3.org/2000/svg">
<path d="M17.7143 1.5H4.61905C3.17243 1.5 2 2.73105 2 4.25V18C2 19.5189 3.17243 20.75 4.61905 20.75H17.7143C19.1609 20.75 20.3333 19.5189 20.3333 18V4.25C20.3333 2.73105 19.1589 1.5 17.7143 1.5ZM16.3884 13.9395L15.9129 16.1046C15.846 16.4108 15.5896 16.625 15.2892 16.625C10.1289 16.625 5.93021 12.2164 5.93021 6.79375C5.93021 6.47887 6.13417 6.2098 6.42578 6.13977L8.48746 5.64004C8.788 5.56686 9.09639 5.73066 9.22121 6.02942L10.1735 8.36177C10.2847 8.63638 10.2096 8.95602 9.98965 9.14466L8.88728 10.0938C9.58255 11.5809 10.7345 12.79 12.1517 13.5205L13.0528 12.3642C13.2306 12.1326 13.5377 12.0527 13.7992 12.1715L16.0189 13.1706C16.3025 13.2992 16.458 13.6258 16.3884 13.9395Z" fill="#666666"/>
</svg>
