<svg width="101" height="33" viewBox="0 0 101 33" fill="none" xmlns="http://www.w3.org/2000/svg">
<rect x="0.5" y="0.5" width="100" height="32" rx="3.5" stroke="#D8541A"/>
<path d="M23.0507 11.4728C20.2744 8.69656 15.7725 8.69656 12.9963 11.4728C10.22 14.2491 10.22 18.751 12.9963 21.5272C15.7726 24.3035 20.2744 24.3035 23.0507 21.5272C25.8269 18.751 25.8269 14.2491 23.0507 11.4728ZM18.04 17.7099L14.6923 21.0576L13.4659 19.8312L16.8136 16.4835L13.499 13.1689L14.6923 11.9757L18.0069 15.2902L21.3214 11.9757L22.5478 13.202L19.2333 16.5166L22.5478 19.8312L21.3546 21.0244L18.04 17.7099Z" fill="white"/>
<path d="M18 22.2675C21.1761 22.2675 23.7509 19.6927 23.7509 16.5166C23.7509 13.3404 21.1761 10.7656 18 10.7656C14.8238 10.7656 12.249 13.3404 12.249 16.5166C12.249 19.6927 14.8238 22.2675 18 22.2675Z" fill="#D8541A"/>
<path d="M21.5842 16.3762C21.7181 16.4536 21.7181 16.5801 21.5842 16.6575L16.3297 19.6911C16.1958 19.7684 16.0862 19.7052 16.0862 19.5505V13.4832C16.0862 13.3285 16.1958 13.2652 16.3297 13.3426L21.5842 16.3762Z" fill="white"/>
<path d="M35.184 22V10.8H38.864C39.7387 10.8 40.4587 10.944 41.024 11.232C41.5893 11.52 42.0053 11.9093 42.272 12.4C42.5493 12.8907 42.688 13.4453 42.688 14.064C42.688 14.672 42.5547 15.2213 42.288 15.712C42.0213 16.2027 41.6053 16.5973 41.04 16.896C40.4747 17.184 39.7493 17.328 38.864 17.328H36.528V22H35.184ZM36.528 16.192H38.832C39.728 16.192 40.3627 16.0053 40.736 15.632C41.12 15.248 41.312 14.7253 41.312 14.064C41.312 13.392 41.12 12.8693 40.736 12.496C40.3627 12.112 39.728 11.92 38.832 11.92H36.528V16.192ZM44.3696 22V14.064H45.5856L45.6976 15.584C45.943 15.0613 46.3163 14.6453 46.8176 14.336C47.319 14.0267 47.9376 13.872 48.6736 13.872V15.28H48.3056C47.8363 15.28 47.4043 15.3653 47.0096 15.536C46.615 15.696 46.3003 15.9733 46.0656 16.368C45.831 16.7627 45.7136 17.3067 45.7136 18V22H44.3696ZM53.4533 22.192C52.6959 22.192 52.0239 22.0213 51.4373 21.68C50.8506 21.328 50.3866 20.8427 50.0453 20.224C49.7146 19.6053 49.5493 18.8747 49.5493 18.032C49.5493 17.2 49.7146 16.4747 50.0453 15.856C50.3759 15.2267 50.8346 14.7413 51.4213 14.4C52.0186 14.048 52.7066 13.872 53.4852 13.872C54.2533 13.872 54.9146 14.048 55.4693 14.4C56.0346 14.7413 56.4666 15.1947 56.7653 15.76C57.0639 16.3253 57.2133 16.9333 57.2133 17.584C57.2133 17.7013 57.2079 17.8187 57.1973 17.936C57.1973 18.0533 57.1973 18.1867 57.1973 18.336H50.8773C50.9093 18.944 51.0479 19.4507 51.2933 19.856C51.5493 20.2507 51.8639 20.5493 52.2373 20.752C52.6213 20.9547 53.0266 21.056 53.4533 21.056C54.0079 21.056 54.4719 20.928 54.8453 20.672C55.2186 20.416 55.4906 20.0693 55.6613 19.632H56.9893C56.7759 20.368 56.3653 20.9813 55.7573 21.472C55.1599 21.952 54.3919 22.192 53.4533 22.192ZM53.4533 15.008C52.8133 15.008 52.2426 15.2053 51.7413 15.6C51.2506 15.984 50.9679 16.5493 50.8932 17.296H55.8853C55.8533 16.5813 55.6079 16.0213 55.1493 15.616C54.6906 15.2107 54.1253 15.008 53.4533 15.008ZM60.9701 22L57.9621 14.064H59.3701L61.7541 20.704L64.1541 14.064H65.5301L62.5221 22H60.9701ZM67.8419 12.304C67.5752 12.304 67.3512 12.2187 67.1699 12.048C66.9992 11.8667 66.9139 11.6427 66.9139 11.376C66.9139 11.12 66.9992 10.9067 67.1699 10.736C67.3512 10.5653 67.5752 10.48 67.8419 10.48C68.0979 10.48 68.3165 10.5653 68.4979 10.736C68.6792 10.9067 68.7699 11.12 68.7699 11.376C68.7699 11.6427 68.6792 11.8667 68.4979 12.048C68.3165 12.2187 68.0979 12.304 67.8419 12.304ZM67.1699 22V14.064H68.5139V22H67.1699ZM74.422 22.192C73.6647 22.192 72.9927 22.0213 72.406 21.68C71.8193 21.328 71.3553 20.8427 71.014 20.224C70.6833 19.6053 70.518 18.8747 70.518 18.032C70.518 17.2 70.6833 16.4747 71.014 15.856C71.3447 15.2267 71.8033 14.7413 72.39 14.4C72.9873 14.048 73.6753 13.872 74.454 13.872C75.222 13.872 75.8833 14.048 76.438 14.4C77.0033 14.7413 77.4353 15.1947 77.734 15.76C78.0327 16.3253 78.182 16.9333 78.182 17.584C78.182 17.7013 78.1767 17.8187 78.166 17.936C78.166 18.0533 78.166 18.1867 78.166 18.336H71.846C71.878 18.944 72.0167 19.4507 72.262 19.856C72.518 20.2507 72.8327 20.5493 73.206 20.752C73.59 20.9547 73.9953 21.056 74.422 21.056C74.9767 21.056 75.4407 20.928 75.814 20.672C76.1873 20.416 76.4593 20.0693 76.63 19.632H77.958C77.7447 20.368 77.334 20.9813 76.726 21.472C76.1287 21.952 75.3607 22.192 74.422 22.192ZM74.422 15.008C73.782 15.008 73.2113 15.2053 72.71 15.6C72.2193 15.984 71.9367 16.5493 71.862 17.296H76.854C76.822 16.5813 76.5767 16.0213 76.118 15.616C75.6593 15.2107 75.094 15.008 74.422 15.008ZM81.2509 22L78.9309 14.064H80.2749L81.9549 20.288L83.8109 14.064H85.3309L87.2029 20.288L88.8669 14.064H90.2269L87.9069 22H86.5309L84.5789 15.456L82.6269 22H81.2509Z" fill="#D8541A"/>
</svg>
