<svg width="16" height="20" viewBox="0 0 16 20" fill="none" xmlns="http://www.w3.org/2000/svg">
<path d="M13.1562 6.56249H8.6875V12.793C8.6875 12.9753 8.61507 13.1502 8.48614 13.2791C8.35721 13.408 8.18234 13.4805 8 13.4805C7.81766 13.4805 7.6428 13.408 7.51386 13.2791C7.38493 13.1502 7.3125 12.9753 7.3125 12.793V6.56249H2.84375C2.20578 6.56317 1.59414 6.8169 1.14303 7.26801C0.691917 7.71913 0.438182 8.33077 0.4375 8.96874V17.2187C0.438182 17.8567 0.691917 18.4683 1.14303 18.9195C1.59414 19.3706 2.20578 19.6243 2.84375 19.625H13.1562C13.7942 19.6243 14.4059 19.3706 14.857 18.9195C15.3081 18.4683 15.5618 17.8567 15.5625 17.2187V8.96874C15.5618 8.33077 15.3081 7.71913 14.857 7.26801C14.4059 6.8169 13.7942 6.56317 13.1562 6.56249ZM8.6875 2.72237L10.9515 4.98596C11.0815 5.10945 11.2546 5.17728 11.4339 5.17498C11.6131 5.17269 11.7844 5.10045 11.9112 4.97368C12.038 4.8469 12.1102 4.67562 12.1125 4.49634C12.1148 4.31707 12.047 4.14399 11.9235 4.01401L8.48598 0.57651C8.35706 0.447676 8.18226 0.375305 8 0.375305C7.81774 0.375305 7.64294 0.447676 7.51402 0.57651L4.07652 4.01401C3.95303 4.14399 3.88521 4.31707 3.8875 4.49634C3.8898 4.67562 3.96203 4.8469 4.08881 4.97368C4.21559 5.10045 4.38687 5.17269 4.56614 5.17498C4.74542 5.17728 4.9185 5.10945 5.04848 4.98596L7.3125 2.72237V6.56249H8.6875V2.72237Z" fill="#666666"/>
</svg>
