<svg width="20" height="21" viewBox="0 0 20 21" fill="none" xmlns="http://www.w3.org/2000/svg">
<path d="M12.5 17C12.3674 17 12.2402 16.9473 12.1464 16.8536C12.0527 16.7598 12 16.6326 12 16.5V4H11V16.5C11 16.6326 10.9473 16.7598 10.8536 16.8536C10.7598 16.9473 10.6326 17 10.5 17C10.3674 17 10.2402 16.9473 10.1464 16.8536C10.0527 16.7598 10 16.6326 10 16.5V11H9C7.93913 11 6.92172 10.5786 6.17157 9.82843C5.42143 9.07828 5 8.06087 5 7C5 5.93913 5.42143 4.92172 6.17157 4.17157C6.92172 3.42143 7.93913 3 9 3H14.5C14.6326 3 14.7598 3.05268 14.8536 3.14645C14.9473 3.24021 15 3.36739 15 3.5C15 3.63261 14.9473 3.75979 14.8536 3.85355C14.7598 3.94732 14.6326 4 14.5 4H13V16.5C13 16.6326 12.9473 16.7598 12.8536 16.8536C12.7598 16.9473 12.6326 17 12.5 17Z" fill="#666666"/>
</svg>
