<svg width="22" height="22" viewBox="0 0 22 22" fill="none" xmlns="http://www.w3.org/2000/svg">
<path d="M4.66667 10.6666H2.83333C1.825 10.6666 1 11.4916 1 12.5V18C1 19.0083 1.825 19.8333 2.83333 19.8333H4.66667C5.675 19.8333 6.5 19.0083 6.5 18V12.5C6.5 11.4916 5.675 10.6666 4.66667 10.6666Z" fill="#666666"/>
<path d="M12.0002 1.5H10.1668C9.1585 1.5 8.3335 2.325 8.3335 3.33333V18C8.3335 19.0083 9.1585 19.8333 10.1668 19.8333H12.0002C13.0085 19.8333 13.8335 19.0083 13.8335 18V3.33333C13.8335 2.325 13.0085 1.5 12.0002 1.5Z" fill="#666666"/>
<path d="M19.3332 7H17.4998C16.4915 7 15.6665 7.825 15.6665 8.83333V18C15.6665 19.0083 16.4915 19.8333 17.4998 19.8333H19.3332C20.3415 19.8333 21.1665 19.0083 21.1665 18V8.83333C21.1665 7.825 20.3415 7 19.3332 7Z" fill="#666666"/>
</svg>
