<svg width="32" height="32" viewBox="0 0 32 32" fill="none" xmlns="http://www.w3.org/2000/svg">
<g clip-path="url(#clip0_57_85490)">
<path d="M14.3336 3.42266C14.8403 3.13009 15.4151 2.97607 16.0002 2.97607C16.5854 2.97607 17.1602 3.13009 17.6669 3.42266L26.0589 8.26666C26.5656 8.55921 26.9864 8.97999 27.279 9.48671C27.5715 9.99342 27.7256 10.5682 27.7256 11.1533V20.844C27.7256 21.4291 27.5715 22.0039 27.279 22.5106C26.9864 23.0173 26.5656 23.4381 26.0589 23.7307L17.6669 28.576C17.1602 28.8686 16.5854 29.0226 16.0002 29.0226C15.4151 29.0226 14.8403 28.8686 14.3336 28.576L5.94157 23.7307C5.43485 23.4381 5.01407 23.0173 4.72151 22.5106C4.42895 22.0039 4.27492 21.4291 4.2749 20.844V11.1547C4.27468 10.5693 4.4286 9.99425 4.72117 9.48728C5.01374 8.98031 5.43465 8.55932 5.94157 8.26666L14.3336 3.42266ZM16.0002 12C14.9394 12 13.922 12.4214 13.1718 13.1716C12.4217 13.9217 12.0002 14.9391 12.0002 16C12.0002 17.0609 12.4217 18.0783 13.1718 18.8284C13.922 19.5786 14.9394 20 16.0002 20C17.0611 20 18.0785 19.5786 18.8287 18.8284C19.5788 18.0783 20.0002 17.0609 20.0002 16C20.0002 14.9391 19.5788 13.9217 18.8287 13.1716C18.0785 12.4214 17.0611 12 16.0002 12Z" fill="#666666"/>
</g>
<defs>
<clipPath id="clip0_57_85490">
<rect width="32" height="32" fill="white"/>
</clipPath>
</defs>
</svg>
