<svg width="20" height="21" viewBox="0 0 20 21" fill="none" xmlns="http://www.w3.org/2000/svg">
<path d="M3 8.81633C3 8.6 3.08612 8.39225 3.23918 8.23918C3.39224 8.08612 3.6 8 3.81633 8C6.16122 8 12.8996 8 15.2449 8C15.4612 8 15.669 8.08612 15.822 8.23918C15.9751 8.39225 16.0612 8.6 16.0612 8.81633C16.0612 9.03306 15.9751 9.24082 15.822 9.39388C15.669 9.54694 15.4612 9.63265 15.2449 9.63265C12.8996 9.63265 6.16122 9.63265 3.81633 9.63265C3.6 9.63265 3.39224 9.54694 3.23918 9.39388C3.08612 9.24082 3 9.03306 3 8.81633ZM3 12.0816C3 11.8653 3.08612 11.6576 3.23918 11.5045C3.39224 11.3514 3.6 11.2653 3.81633 11.2653C5.38041 11.2653 8.78286 11.2653 10.3469 11.2653C10.5633 11.2653 10.771 11.3514 10.9241 11.5045C11.0771 11.6576 11.1633 11.8653 11.1633 12.0816C11.1633 12.2984 11.0771 12.5061 10.9241 12.6592C10.771 12.8122 10.5633 12.898 10.3469 12.898C8.78286 12.898 5.38041 12.898 3.81633 12.898C3.6 12.898 3.39224 12.8122 3.23918 12.6592C3.08612 12.5061 3 12.2984 3 12.0816Z" fill="#666666"/>
</svg>
