<svg width="20" height="21" viewBox="0 0 20 21" fill="none" xmlns="http://www.w3.org/2000/svg">
<path d="M11.9987 4.49479L4.89062 8.41536L2 17.5664L6.76042 12.8073C6.80217 12.7661 6.84848 12.7299 6.89844 12.6992C6.76085 12.3182 6.75722 11.9018 6.88814 11.5185C7.01906 11.1351 7.27671 10.8079 7.6186 10.5907C7.96049 10.3735 8.36619 10.2793 8.76881 10.3236C9.17142 10.368 9.5469 10.5482 9.83332 10.8347C10.1197 11.1211 10.3 11.4965 10.3443 11.8992C10.3887 12.3018 10.2945 12.7075 10.0773 13.0494C9.86006 13.3913 9.53282 13.6489 9.14951 13.7798C8.7662 13.9107 8.34972 13.9071 7.96875 13.7695C7.93753 13.8191 7.90084 13.8649 7.85937 13.9062L3.10026 18.6667L12.2513 15.776L16.1732 8.66797L18.6667 6.17318L14.4935 2L11.9987 4.49479Z" fill="#666666"/>
</svg>
