<svg width="22" height="22" viewBox="0 0 22 22" fill="none" xmlns="http://www.w3.org/2000/svg">
<path d="M11.0833 0.5C9.08904 0.5 7.13953 1.09138 5.48134 2.19935C3.82314 3.30732 2.53074 4.88212 1.76755 6.72461C1.00437 8.5671 0.804685 10.5945 1.19375 12.5505C1.58282 14.5065 2.54317 16.3031 3.95335 17.7133C5.36352 19.1235 7.1602 20.0839 9.11618 20.4729C11.0722 20.862 13.0996 20.6623 14.9421 19.8991C16.7846 19.1359 18.3594 17.8435 19.4673 16.1853C20.5753 14.5271 21.1667 12.5776 21.1667 10.5833C21.1667 7.90907 20.1043 5.34433 18.2133 3.45334C16.3223 1.56235 13.7576 0.5 11.0833 0.5ZM14.4814 13.9814C14.3095 14.1533 14.0764 14.2498 13.8333 14.2498C13.5903 14.2498 13.3572 14.1533 13.1853 13.9814L10.4353 11.2314C10.2633 11.0595 10.1667 10.8264 10.1667 10.5833V5.08333C10.1667 4.84022 10.2632 4.60706 10.4352 4.43515C10.6071 4.26324 10.8402 4.16667 11.0833 4.16667C11.3265 4.16667 11.5596 4.26324 11.7315 4.43515C11.9034 4.60706 12 4.84022 12 5.08333V10.2038L14.4814 12.6853C14.6533 12.8572 14.7498 13.0903 14.7498 13.3333C14.7498 13.5764 14.6533 13.8095 14.4814 13.9814Z" fill="#666666"/>
</svg>
